<?xml version="1.0" encoding="UTF-8"?>
<svg version="1.1" xmlns="http://www.w3.org/2000/svg" width="32" height="32">
<path d="M0 0 C10.56 0 21.12 0 32 0 C32 10.56 32 21.12 32 32 C21.44 32 10.88 32 0 32 C0 21.44 0 10.88 0 0 Z " fill="#0262EC" transform="translate(0,0)"/>
<path d="M0 0 C5.75 -0.125 5.75 -0.125 8 1 C7.67 1.99 7.34 2.98 7 4 C4.525 3.01 4.525 3.01 2 2 C2 3.32 2 4.64 2 6 C2.804375 5.814375 3.60875 5.62875 4.4375 5.4375 C5.7059375 5.2209375 5.7059375 5.2209375 7 5 C8 6 8 6 8.125 8.5 C8 11 8 11 7 12 C4.66702567 12.04092937 2.33294775 12.04241723 0 12 C0.185625 11.195625 0.37125 10.39125 0.5625 9.5625 C0.706875 8.716875 0.85125 7.87125 1 7 C0.67 6.67 0.34 6.34 0 6 C-0.04080783 4.00041636 -0.04254356 1.99954746 0 0 Z " fill="#00122D" transform="translate(9,10)"/>
<path d="M0 0 C0.33 0 0.66 0 1 0 C1 4.62 1 9.24 1 14 C-3.29 14 -7.58 14 -12 14 C-9 12 -9 12 -6 10.375 C-2.03433981 7.23551902 -1.43500496 4.78334987 0 0 Z " fill="#EEF3FF" transform="translate(31,18)"/>
<path d="M0 0 C0.66 1.32 1.32 2.64 2 4 C4.99242043 9.43068894 7.33307267 11.03837131 13 13 C13 13.33 13 13.66 13 14 C8.71 14 4.42 14 0 14 C0 9.38 0 4.76 0 0 Z " fill="#F0F4FF" transform="translate(0,18)"/>
<path d="M0 0 C4.62 0 9.24 0 14 0 C14 4.29 14 8.58 14 13 C13.34 11.68 12.68 10.36 12 9 C8.7634478 3.89620615 5.56770038 2.76310512 0 1 C0 0.67 0 0.34 0 0 Z " fill="#F0F4FF" transform="translate(18,0)"/>
<path d="M0 0 C4.29 0 8.58 0 13 0 C11.02 0.99 11.02 0.99 9 2 C4.30577381 5.09131969 2.87282661 7.87436927 1 13 C0.67 13 0.34 13 0 13 C0 8.71 0 4.42 0 0 Z " fill="#F4F7FF" transform="translate(0,0)"/>
<path d="M0 0 C0.99 0.33 1.98 0.66 3 1 C2.67 2.32 2.34 3.64 2 5 C0.68 5 -0.64 5 -2 5 C-2 4.01 -2 3.02 -2 2 C-1.34 2 -0.68 2 0 2 C0 1.34 0 0.68 0 0 Z " fill="#005EDF" transform="translate(13,16)"/>
<path d="M0 0 C2 0.3125 2 0.3125 4 1 C4.33 1.66 4.66 2.32 5 3 C3.68 3 2.36 3 1 3 C0.67 4.98 0.34 6.96 0 9 C-0.33 9 -0.66 9 -1 9 C-1.09765625 2.84765625 -1.09765625 2.84765625 -1 1 C-0.67 0.67 -0.34 0.34 0 0 Z " fill="#0056CD" transform="translate(21,11)"/>
</svg>
